<svg height="512pt" viewBox="0 -18 512.001 512" width="512pt" xmlns="http://www.w3.org/2000/svg"><path d="m512 434.058594h-446.285156v-113.796875c0-70 56.746094-126.746094 126.746094-126.746094h192.796874c70 0 126.742188 56.746094 126.742188 126.746094zm0 0" fill="#d2ffff"/><path d="m383.453125 193.519531h-59.859375c70.992188 0 128.542969 57.550781 128.542969 128.546875v111.992188h59.863281v-111.992188c0-70.996094-57.550781-128.546875-128.546875-128.546875zm0 0" fill="#9af1ff"/><path d="m419.328125 475.445312h-260.941406c-5.523438 0-10-4.476562-10-10v-146.136718c0-5.523438 4.476562-10 10-10h260.941406c5.523437 0 10 4.476562 10 10v146.136718c0 5.523438-4.476563 10-10 10zm0 0" fill="#1dc2ff"/><path d="m419.183594 309.308594h-36.429688v135.710937c0 5.601563-4.539062 10.140625-10.140625 10.140625h-224.226562v10.140625c0 5.605469 4.542969 10.144531 10.144531 10.144531h260.652344c5.601562 0 10.144531-4.542968 10.144531-10.144531v-145.847656c0-5.605469-4.542969-10.144531-10.144531-10.144531zm0 0" fill="#00a2ff"/><path d="m393.871094 135.199219c0-13.777344-7.484375-25.085938-17.046875-26.339844v-35.828125c0-40.332031-32.695313-73.03125-73.03125-73.03125h-39.65625c-40.335938 0-73.03125 32.699219-73.03125 73.03125v35.828125c-9.558594 1.253906-17.046875 12.5625-17.046875 26.339844 0 14.054687 7.792968 25.542969 17.632812 26.398437 2.753906 22.058594 15.332032 41.050782 33.230469 52.46875 1.300781 20.105469 18.011719 36.015625 38.449219 36.015625h41.1875c20.4375 0 37.148437-15.910156 38.449218-36.015625 17.898438-11.417968 30.492188-30.410156 33.246094-52.46875 9.832032-.867187 17.617188-12.351562 17.617188-26.398437zm0 0" fill="#f7c6ba"/><path d="m284.101562 188.332031c19.636719 0 35.550782-15.914062 35.550782-35.546875h-71.097656c0 19.632813 15.914062 35.546875 35.546874 35.546875zm0 0" fill="#fff"/><path d="m114.875 358.464844h-69.933594c-5.445312 0-9.855468 4.410156-9.855468 9.855468v13.179688h-.660157c-18.984375-.003906-34.425781 15.441406-34.425781 34.425781v1.929688c0 18.984375 15.441406 34.425781 34.425781 34.425781h.660157v13.351562c0 5.445313 4.410156 9.859376 9.855468 9.859376h69.933594c5.445312 0 9.855469-4.414063 9.855469-9.859376v-97.3125c0-5.441406-4.410157-9.855468-9.855469-9.855468zm-80.449219 79.03125c-10.832031 0-19.640625-8.8125-19.640625-19.640625v-1.933594c0-10.832031 8.808594-19.640625 19.640625-19.640625h.660157v41.214844zm0 0" fill="#ff6914"/><path d="m393.871094 135.199219c0-13.777344-7.484375-25.085938-17.046875-26.339844v-35.832031c0-31.023438-19.355469-57.511719-46.640625-68.09375 14.335937 13.335937 23.3125 32.351562 23.3125 53.472656v79.453125c0 40.332031-32.691406 73.023437-73.023438 73.023437h-39.671875c-9.308593 0-18.199219-1.757812-26.382812-4.933593 13.035156 12.125 30.503906 19.554687 49.710937 19.554687h39.671875c.585938 0 1.167969-.03125 1.75-.046875-7.042969 14.101563-21.355469 23.933594-38.03125 24.582031.585938.023438 1.167969.042969 1.753907.042969h35.285156c20.433594 0 37.144531-15.90625 38.449218-36.011719 17.898438-11.417968 30.480469-30.410156 33.230469-52.472656 9.835938-.855468 17.632813-12.34375 17.632813-26.398437zm0 0" fill="#f4ada5"/><path d="m274.675781 50.664062h18.578125c36.757813 0 68.523438 21.363282 83.570313 52.347657v-29.988281c0-40.328126-32.695313-73.023438-73.023438-73.023438h-39.671875c-40.332031 0-73.023437 32.695312-73.023437 73.023438v29.988281c15.046875-30.984375 46.808593-52.347657 83.570312-52.347657zm0 0" fill="#005ca0"/><path d="m376.492188 66.179688c-1.832032-19.699219-11.84375-38.085938-27.367188-50.386719-.105469-.085938-.210938-.167969-.320312-.253907-2.75-2.15625-5.660157-4.121093-8.710938-5.871093-.042969-.023438-.085938-.050781-.128906-.074219-3.121094-1.78125-6.386719-3.34375-9.773438-4.65625-.003906 0-.003906-.003906-.007812-.003906 14.335937 13.335937 23.3125 32.351562 23.3125 53.472656v14.460938c9.710937 8.289062 17.691406 18.542968 23.328125 30.144531v-29.988281c0-2.269532-.121094-4.578126-.332031-6.84375zm0 0" fill="#005182"/><path d="m114.589844 358.464844h-12.171875v93.046875c0 5.601562-4.539063 10.140625-10.140625 10.140625h-57.191406v3.695312c0 5.601563 4.539062 10.140625 10.140624 10.140625h69.363282c5.597656 0 10.140625-4.539062 10.140625-10.140625v-96.742187c0-5.601563-4.539063-10.140625-10.140625-10.140625zm0 0" fill="#ed500a"/><g fill="#005182"><path d="m253.472656 115.371094c0 7.507812-6.085937 13.59375-13.59375 13.59375-7.507812 0-13.59375-6.085938-13.59375-13.59375 0-7.503906 6.085938-13.589844 13.59375-13.589844 7.507813 0 13.59375 6.085938 13.59375 13.589844zm0 0"/><path d="m338.453125 115.371094c0 7.507812-6.085937 13.59375-13.59375 13.59375s-13.59375-6.085938-13.59375-13.59375c0-7.503906 6.085937-13.589844 13.59375-13.589844s13.59375 6.085938 13.59375 13.589844zm0 0"/></g></svg>